<?xml version="1.0" standalone="no"?><!DOCTYPE svg PUBLIC "-//W3C//DTD SVG 1.1//EN" "http://www.w3.org/Graphics/SVG/1.1/DTD/svg11.dtd"><svg t="1686708487042" class="icon" viewBox="0 0 1024 1024" version="1.1" xmlns="http://www.w3.org/2000/svg" p-id="2660" xmlns:xlink="http://www.w3.org/1999/xlink" width="200" height="200"><path d="M129.599 382.4a382.4 382.4 0 1 0 764.8 0 382.4 382.4 0 1 0-764.8 0z" fill="#FDBF5E" p-id="2661"></path><path d="M900.8 755.2h32v32h-32z m0 86.399h32v32h-32zM900.8 927.999h32v32h-32zM91.2 755.2h32v32h-32z m0 86.398h32v32h-32zM91.2 927.999h32v32h-32z" fill="#193651" p-id="2662"></path><path d="M824 382.4c0-172.8-139.2-312-312.001-312s-311.998 139.2-311.998 312c0 116.8 65.6 219.2 160 272v283.2h302.4V654.4c95.999-52.8 161.598-155.2 161.598-272z" fill="#E1E6E9" p-id="2663"></path><path d="M662.4 953.6H361.6c-9.601 0-16.001-6.4-16.001-16V663.999c-99.2-59.2-160-166.4-160-281.6 0-180.8 147.2-327.999 327.998-327.999s328 147.201 328 328c0 115.2-60.8 222.4-160 281.599v273.6c-3.198 9.602-9.598 16.002-19.196 16.002zM377.6 921.6H648V654.4c0-6.4 3.201-11.2 8-14.4 94.401-52.8 152-150.4 152-259.2 0-163.2-132.8-296-295.999-296s-296.002 132.8-296.002 296C216 488 273.6 587.2 368 640c4.8 3.2 8 8 8 14.4V921.6h1.601z" fill="#193651" p-id="2664"></path><path d="M763.199 382.4c0-139.2-112-251.2-251.2-251.2s-251.2 112-251.2 251.2c0 91.2 49.599 175.999 129.6 219.2l30.398 17.6h180.801l30.4-17.6c81.602-43.201 131.201-128 131.201-219.2z" fill="#FFFFFF" p-id="2665"></path><path d="M428.8 539.2h166.4L512 428.8z" fill="#FDBF5E" p-id="2666"></path><path d="M428.8 539.2h164.8v384H428.8z" fill="#2EA2DB" p-id="2667"></path><path d="M473.6 539.2H552v384h-78.4z m-22.4 398.4h120.001v70.4h-120z" fill="#E1E6E9" p-id="2668"></path><path d="M572.8 921.599H452.798c-9.6 0-16 6.4-16 16v70.4c0 9.601 6.4 16.001 16 16.001h120c9.601 0 16.001-6.4 16.001-16v-70.4c0-8-8-16.001-16-16.001zM556.8 992h-88v-38.4h88V992z m116.8-606.4c-9.601 0-16.001-6.4-16.001-16 0-73.6-59.2-132.8-132.8-132.8-9.601 0-16.001-6.4-16.001-16.001s6.4-16.001 16-16.001c91.2 0 164.8 73.6 164.8 164.8 0.003 8.002-6.397 16.003-15.998 16.003zM550.4 480L512 428.8l-38.4 51.2zM688 894.398H336c-9.601 0-16.001-6.4-16.001-16.001s6.4-16.001 16-16.001H688c9.601 0 16.001 6.4 16.001 16-0.002 8.003-8 16.002-16 16.002z m0-76.8H336c-9.601 0-16.001-6.4-16.001-16s6.4-16.001 16-16.001H688c9.601 0 16.001 6.4 16.001 16-0.002 9.602-8 16.002-16 16.002z m0-75.198H336c-9.601 0-16.001-6.4-16.001-16.001s6.4-16.001 16-16.001H688c9.601 0 16.001 6.4 16.001 16s-8 16.002-16 16.002z" fill="#193651" p-id="2669"></path></svg>