<?xml version="1.0" standalone="no"?><!DOCTYPE svg PUBLIC "-//W3C//DTD SVG 1.1//EN" "http://www.w3.org/Graphics/SVG/1.1/DTD/svg11.dtd"><svg t="1686216901341" class="icon" viewBox="0 0 1024 1024" version="1.1" xmlns="http://www.w3.org/2000/svg" p-id="1371" xmlns:xlink="http://www.w3.org/1999/xlink" width="200" height="200"><path d="M325.6 599.7c-0.4-6.2 3.7-11.6 10-12.9 31.2-5.8 123.1-17.9 171.8 7.9 52 27.5 130.6 5 165.5-6.7 8.3-2.9 16.6 3.7 15.4 12.5l-27.5 271.6c-0.4 6.2-5.8 10.4-11.6 10.4H369.3c-6.2 0-10.8-4.6-11.6-10.4l-32.1-272.4z m0 0" fill="#5FCEFF" p-id="1372"></path><path d="M452.9 818c-1.8 0-4 0-5.3-0.4-12-2.7-19-14.6-16.4-27L572 213.2c1.8-7.5 7.1-13.3 14.2-15.9l140.8-47c2.2-0.4 4.9-0.9 7.1-0.9 9.3 0 18.2 6.2 20.8 15.5 1.8 5.3 1.8 11.5-0.9 16.8-2.7 5.3-7.1 9.3-12.4 11.1l-129.3 42.5-138.1 565.9c-2.2 9.7-11.5 16.8-21.3 16.8z m0 0" fill="#A1FDFF" p-id="1373"></path><path d="M734.1 161.4c4 0 7.1 2.2 8.4 6.2 1.8 4.4-0.9 9.7-5.3 11.5l-135.9 45.6-139.9 572.9c-0.9 4-4.4 6.6-8.9 6.6h-2.2c-4.9-0.9-7.5-6.2-6.6-11.1l140.8-577.3c0.4-2.7 2.7-5.3 6.2-6.6l140.8-46.9c0.4 0 1.3-0.9 2.6-0.9m0-26.1c-4 0-7.5 0.4-11.5 1.8L581.8 184c-11.5 4-20.4 13.3-23 25.2L418.4 787.4c-4.4 19 7.1 38.5 26.1 42.9 2.7 0.4 5.3 0.9 8.4 0.9 16.4 0 30.5-11.1 34.5-27l135.9-558.7 122.2-41.2c8.9-3.1 16.4-9.3 20.4-18.2 4.4-8.9 4.9-18.2 1.8-27-5.3-14.1-18.1-23.8-33.6-23.8z m0 0" fill="#4C2F1B" p-id="1374"></path><path d="M450.7 804.3h2.2c4 0 7.5-2.7 8.9-6.6l50.9-209.9c-1.8-0.4-3.1-1.8-4.9-2.2-4-1.8-7.5-4-11.5-4.9l-52.2 212.9c-0.9 4.5 1.8 9.8 6.6 10.7z m0 0" fill="#B6F6FF" p-id="1375"></path><path d="M360.4 888.7c-1 0-2.2-0.3-3.6-1-3.5-1.4-5.8-4.3-6-7.5L316.7 591c0-0.6 0.1-1.4 0.3-2.3l0.1-0.5v-0.7l-7.8-66.2-2.6-0.2c-28.9-2-52.3-27.1-52.3-55.9 0-30.4 25.7-56.1 56.1-56.1h13.7l0.5-2.5c19.7-93.1 94.9-158.2 182.8-158.2 87.1 0 163.4 66.5 181.5 158.1l0.5 2.6h7.1c30.4 0 56.1 25.7 56.1 56.1 0 26.6-19.9 50.4-46.3 55.2l-2.4 0.4-34.9 347.8c-0.1 1.5-0.5 3-1 4.8l-0.8 6.8c-0.7 4.8-4.5 8.2-9.2 8.2h-6.2c-2 0.3-3.4 0.4-4.8 0.4H360.4z m56.2-278.9c-17.5 0-34.5 1.4-49.6 2.7l-8.8 0.7L385.9 850h247l22-220.2-4.3 1c-29.3 6.5-54.7 9.7-77.7 9.7-32.7 0-61.4-6.3-85.3-18.7-7.9-4.5-27.8-12-71-12z m0-37.9c39 0 68.6 5.4 87.9 16 18.9 9.7 41.6 14.6 67.5 14.6 25.4 0 54-4.4 85-13.1l2.1-0.6 6.7-67.1H347.5l6.4 54.4 3.2-0.4c20.7-2.5 40.7-3.8 59.5-3.8zM311.3 446.4c-9.8 0-17.8 8-17.8 17.8 0 10 7.8 17.8 17.8 17.8h386.1c9.7 0 17.8-8.2 17.8-17.8 0-10-7.8-17.8-17.8-17.8H693c-19.3 0-36.2-13.8-40.3-32.9-15.4-73.8-76.5-127.4-145.2-127.4-69.4 0-130.3 53.6-144.8 127.4-3.7 19-20.6 32.8-40.2 32.8h-11.2z" fill="#4C2F1B" p-id="1376"></path><path d="M555.2 685.2c0 8.1 6.5 14.6 14.6 14.6s14.6-6.5 14.6-14.6-6.5-14.6-14.6-14.6c-8-0.1-14.6 6.5-14.6 14.6z m0 0M584.4 748.5c0 8.1 6.5 14.6 14.6 14.6s14.6-6.5 14.6-14.6-6.5-14.6-14.6-14.6-14.6 6.5-14.6 14.6z m0 0M411.3 748.9c0 5.9 4.8 10.6 10.6 10.6 5.9 0 10.6-4.8 10.6-10.6 0-5.9-4.8-10.6-10.6-10.6s-10.6 4.7-10.6 10.6z m0 0M414.9 685.2c0 3.9 3.2 7.1 7.1 7.1 3.9 0 7.1-3.2 7.1-7.1 0-3.9-3.2-7.1-7.1-7.1-4 0-7.1 3.1-7.1 7.1z m0 0M562.7 803.4c0 2.7 2.2 4.9 4.9 4.9s4.9-2.2 4.9-4.9-2.2-4.9-4.9-4.9-4.9 2.2-4.9 4.9z m0 0" fill="#A9EDFF" p-id="1377"></path></svg>